# xmcd
#
# Track frame offsets: 
#        150
#        14637
#        32430
#        55402
#        75017
#        97960
#        124312
#        150492
#        173814
#        202965
#        223230
#        244199
#
# Disc length: 3549 seconds
#
# Revision: 0
# Processed by: cddbd v1.5.2PL0 Copyright (c) Steve Scherf et al.
# Submitted via: ExactAudioCopy v1.3
#
DISCID=950ddb0c
DTITLE=Major Handy - Zydeco Soul
DYEAR=2019
DGENRE=Zydeco
TTITLE0=Tail Spin
TTITLE1=Girl What Is That You're Doing?
TTITLE2=Keep on Walking
TTITLE3=Collinda
TTITLE4=Zydeco Mama
TTITLE5=Iggy Diggy
TTITLE6=Zydeco Boogie
TTITLE7=Don't Say Goodbye
TTITLE8=Trail Ride
TTITLE9=Higher and Higher
TTITLE10=Just Once
TTITLE11=Zydeco Jazz
EXTD=
EXTT0=
EXTT1=
EXTT2=
EXTT3=
EXTT4=
EXTT5=
EXTT6=
EXTT7=
EXTT8=
EXTT9=
EXTT10=
EXTT11=
PLAYORDER=
